<svg width="52" height="28" viewBox="0 0 52 28" fill="none" xmlns="http://www.w3.org/2000/svg">
<path d="M27.2344 22.0135V8.27614C27.2344 7.01155 28.269 5.98682 29.5447 5.98682V19.7242C29.5447 20.9888 28.5101 22.0135 27.2344 22.0135Z" fill="#080B1D"/>
<path d="M39.1109 22.197C37.8781 22.197 36.7 22.0103 35.5755 21.636C35.3442 21.5591 35.1231 21.4774 34.9123 21.3913C33.7371 20.9111 33.2286 19.5339 33.7737 18.3965C34.3896 18.9308 35.1753 19.3733 36.1304 19.7244C37.0855 20.076 38.0792 20.251 39.1114 20.251C40.0508 20.251 40.8132 20.1446 41.3988 19.9304C41.984 19.7167 42.4154 19.4231 42.6926 19.0488C42.9698 18.675 43.1084 18.2514 43.1084 17.7779C43.1084 17.2286 42.9273 16.7861 42.5652 16.45C42.2031 16.1144 41.7331 15.8431 41.1558 15.6371C40.5779 15.4311 39.9425 15.2517 39.2495 15.0988C38.5565 14.9465 37.8591 14.7671 37.1582 14.5606C36.4569 14.3546 35.8181 14.091 35.2403 13.7709C34.6624 13.4503 34.1963 13.0194 33.8425 12.4773C33.4877 11.9357 33.311 11.2374 33.311 10.3824C33.311 9.52737 33.5307 8.79908 33.9694 8.10416C34.4081 7.40972 35.086 6.85262 36.0026 6.43286C36.9186 6.0131 38.086 5.80322 39.5033 5.80322C40.4427 5.80322 41.3749 5.92557 42.2992 6.1693C42.4159 6.20025 42.5306 6.23265 42.6438 6.26699C43.819 6.62388 44.4085 7.92813 43.94 9.05393C43.247 8.59597 42.5149 8.26422 41.7448 8.05821C40.9742 7.8522 40.2275 7.7492 39.5038 7.7492C38.5945 7.7492 37.8474 7.86381 37.2627 8.09255C36.677 8.32177 36.2495 8.62692 35.9801 9.00847C35.7107 9.39003 35.576 9.81752 35.576 10.2905C35.576 10.8553 35.7566 11.306 36.1192 11.6411C36.4808 11.9772 36.9508 12.2442 37.5287 12.4425C38.1065 12.6412 38.7419 12.8201 39.4349 12.9807C40.128 13.1408 40.8249 13.3207 41.5262 13.5189C42.227 13.7177 42.8663 13.9769 43.4442 14.2975C44.022 14.6181 44.4876 15.0456 44.8419 15.5795C45.1962 16.1139 45.3734 16.8011 45.3734 17.6401C45.3734 18.4791 45.1504 19.2011 44.7033 19.8951C44.2568 20.59 43.5672 21.1466 42.6355 21.5664C41.7033 21.9862 40.5286 22.196 39.1119 22.196L39.1109 22.197Z" fill="#080B1D"/>
<path d="M15.377 5.33008C10.5449 5.33008 6.62744 9.21139 6.62744 13.9999C6.62744 18.7885 10.5449 22.6698 15.377 22.6698C20.2091 22.6698 24.1265 18.788 24.1265 13.9999C24.1265 9.21187 20.2095 5.33008 15.377 5.33008ZM15.377 19.1603C12.5005 19.1603 10.1691 16.8497 10.1691 13.9999C10.1691 11.1501 12.501 8.83951 15.377 8.83951C18.253 8.83951 20.5848 11.1501 20.5848 13.9999C20.5848 16.8497 18.253 19.1603 15.377 19.1603Z" fill="#283593"/>
<mask id="mask0_642_9362" style="mask-type:luminance" maskUnits="userSpaceOnUse" x="6" y="5" width="19" height="18">
<path d="M15.377 5.33008C10.5449 5.33008 6.62744 9.21139 6.62744 13.9999C6.62744 18.7885 10.5449 22.6698 15.377 22.6698C20.2091 22.6698 24.1265 18.788 24.1265 13.9999C24.1265 9.21187 20.2095 5.33008 15.377 5.33008ZM15.377 19.1603C12.5005 19.1603 10.1691 16.8497 10.1691 13.9999C10.1691 11.1501 12.501 8.83951 15.377 8.83951C18.253 8.83951 20.5848 11.1501 20.5848 13.9999C20.5848 16.8497 18.253 19.1603 15.377 19.1603Z" fill="white"/>
</mask>
<g mask="url(#mask0_642_9362)">
<path d="M15.377 5.33008C10.5449 5.33008 6.62744 9.21139 6.62744 13.9999C6.62744 18.7885 10.5449 22.6698 15.377 22.6698C20.2091 22.6698 24.1265 18.788 24.1265 13.9999C24.1265 9.21187 20.2095 5.33008 15.377 5.33008ZM15.377 19.1603C12.5005 19.1603 10.1691 16.8497 10.1691 13.9999C10.1691 11.1501 12.501 8.83951 15.377 8.83951C18.253 8.83951 20.5848 11.1501 20.5848 13.9999C20.5848 16.8497 18.253 19.1603 15.377 19.1603Z" fill="#4756C1"/>
<path d="M18.9793 0.716797C11.1892 0.716797 4.87451 6.974 4.87451 14.6931C4.87451 22.4122 11.1892 28.6694 18.9793 28.6694C26.7694 28.6694 33.0841 22.4122 33.0841 14.6931C33.0841 6.974 26.7694 0.716797 18.9793 0.716797ZM18.9793 23.0123C14.3425 23.0123 10.5836 19.2877 10.5836 14.6931C10.5836 10.0985 14.3425 6.37386 18.9793 6.37386C23.6162 6.37386 27.375 10.0985 27.375 14.6931C27.375 19.2877 23.6162 23.0123 18.9793 23.0123Z" fill="#283593"/>
<path d="M16.2648 4.84521C9.39908 4.84521 3.8335 10.3601 3.8335 17.1633C3.8335 23.9665 9.39908 29.4813 16.2648 29.4813C23.1305 29.4813 28.6961 23.9665 28.6961 17.1633C28.6961 10.3601 23.1305 4.84521 16.2648 4.84521ZM16.2648 24.4955C12.178 24.4955 8.86517 21.2129 8.86517 17.1633C8.86517 13.1137 12.178 9.83105 16.2648 9.83105C20.3516 9.83105 23.6644 13.1137 23.6644 17.1633C23.6644 21.2129 20.3516 24.4955 16.2648 24.4955Z" fill="#4756C1"/>
<path d="M12.1048 1.12939C4.31522 1.12939 -2 7.38708 -2 15.1057C-2 22.8243 4.31473 29.082 12.1048 29.082C19.8949 29.082 26.2096 22.8248 26.2096 15.1057C26.2096 7.3866 19.8949 1.12939 12.1048 1.12939ZM12.1048 23.4249C7.46794 23.4249 3.70907 19.7003 3.70907 15.1057C3.70907 10.5111 7.46794 6.78646 12.1048 6.78646C16.7416 6.78646 20.5005 10.5111 20.5005 15.1057C20.5005 19.7003 16.7416 23.4249 12.1048 23.4249Z" fill="#BBC3FF"/>
</g>
</svg>
